<?xml version="1.0" encoding="UTF-8" standalone="no"?>
<!-- Created with Inkscape (http://www.inkscape.org/) -->

<svg
   width="210mm"
   height="297mm"
   viewBox="0 0 210 297"
   version="1.1"
   id="svg5"
   xml:space="preserve"
   inkscape:export-filename="Rastergrafik.svg"
   inkscape:export-xdpi="96"
   inkscape:export-ydpi="96"
   xmlns:inkscape="http://www.inkscape.org/namespaces/inkscape"
   xmlns:sodipodi="http://sodipodi.sourceforge.net/DTD/sodipodi-0.dtd"
   xmlns="http://www.w3.org/2000/svg"
   xmlns:svg="http://www.w3.org/2000/svg"><sodipodi:namedview
     id="namedview7"
     pagecolor="#505050"
     bordercolor="#eeeeee"
     borderopacity="1"
     inkscape:showpageshadow="0"
     inkscape:pageopacity="0"
     inkscape:pagecheckerboard="0"
     inkscape:deskcolor="#505050"
     inkscape:document-units="mm"
     showgrid="false" /><defs
     id="defs2"><linearGradient
       id="linearGradient4414"
       inkscape:swatch="solid"><stop
         style="stop-color:#2ecc71;stop-opacity:1;"
         offset="0"
         id="stop4412" /></linearGradient><linearGradient
       id="linearGradient909"
       inkscape:swatch="solid"><stop
         style="stop-color:#ffffff;stop-opacity:1;"
         offset="0"
         id="stop907" /></linearGradient></defs><g
     inkscape:label="Ebene 1"
     inkscape:groupmode="layer"
     id="layer1"><g
       style="display:inline;mix-blend-mode:normal;fill:#000001;fill-opacity:1;stroke:none;stroke-opacity:1"
       id="g152"
       transform="matrix(9.6732519,0,0,9.6732519,-11.079023,32.549379)"><path
         d="m 12.6966,1.28263 c 0,0 6e-4,5e-4 0.0023,0.0022 l -0.0011,-0.00109 0.0127,0.01134 c 0.0176,0.01556 0.0525,0.04536 0.1066,0.08744 0.1081,0.08413 0.2936,0.21771 0.5724,0.38499 0.5574,0.33444 1.4902,0.80495 2.9267,1.28381 1.4696,0.48986 2.4289,0.72789 3.0049,0.8431 0.2876,0.05752 0.4776,0.08401 0.5862,0.09607 0.0542,0.00602 0.0877,0.00841 0.1026,0.00928 l 0.0067,3.7e-4 C 20.5613,4.00902 21,4.45327 21,5 v 7 c 0,3.4464 -2.2817,6.2003 -4.3415,8.0026 -1.0509,0.9195 -2.097,1.6382 -2.8785,2.1266 -0.3918,0.2449 -0.7197,0.4335 -0.9519,0.5621 -0.1978,0.1095 -0.3864,0.1825 -0.5908,0.2437 -0.1548,0.0464 -0.3202,0.048 -0.4751,0.0019 C 11.5576,22.8761 11.3695,22.8007 11.1719,22.6913 10.9397,22.5627 10.6118,22.3741 10.22,22.1292 9.43854,21.6408 8.39238,20.9221 7.3415,20.0026 5.28175,18.2003 3,15.4464 3,12 V 5 C 3,4.45328 3.43875,4.00903 3.98335,4.00014 L 3.99011,3.99977 C 4.00499,3.9989 4.0385,3.99651 4.09269,3.99049 4.20126,3.97843 4.39127,3.95194 4.67888,3.89442 5.25494,3.77921 6.21419,3.54118 7.68377,3.05132 9.12034,2.57246 10.0531,2.10195 10.6105,1.76751 10.8893,1.60023 11.0748,1.46665 11.1829,1.38252 11.237,1.34044 11.2719,1.31064 11.2896,1.29508 l 0.0126,-0.01134 c 0.3881,-0.378321 1.0075,-0.378321 1.3956,0 z"
         fill="#000000"
         id="path143"
         style="display:inline;fill:#002244;fill-opacity:1;stroke:#d0d0d0;stroke-width:0.671956;stroke-linejoin:round;stroke-miterlimit:12.1;stroke-dasharray:none;stroke-dashoffset:0;stroke-opacity:1;paint-order:normal" /></g><g
       style="fill:#fffffb;fill-opacity:1;stroke:none;stroke-width:1.16477;stroke-dasharray:none;paint-order:markers fill stroke"
       id="g141"
       transform="matrix(9.7810494,0,0,9.7810494,36.532654,68.920147)"><path
         d="m 12.842573,8.8110336 c 0,0.3473132 -0.118945,0.6137552 -0.356835,0.7945538 -0.237889,0.1807898 -0.480537,0.271194 -0.7327,0.271194 0.209343,0.4424776 0.199827,0.8183406 -0.02379,1.1275976 -0.223617,0.304495 -0.647061,0.461505 -1.27509,0.461505 H 8.8698127 c -0.090397,0.31877 -0.5376299,0.47578 -1.3416973,0.47578 H 6.4290647 c -0.789794,0 -1.2370268,-0.15701 -1.3416983,-0.47578 H 3.5648719 c -0.6327867,0 -1.0657461,-0.15701 -1.2893625,-0.466267 -0.2236164,-0.309257 -0.233132,-0.689881 -0.028547,-1.1418726 -0.2426476,0 -0.4852951,-0.09037 -0.7279427,-0.275946 C 1.2811301,9.3962376 1.1574275,9.1345578 1.1574275,8.7967584 1.1574275,8.4066201 1.3239504,8.1068766 1.656996,7.8975373 1.794972,7.6596472 1.8853702,7.5073897 1.9234325,7.4312708 2.028104,7.2219216 2.12326,7.0458849 2.2089003,6.8983989 1.9044014,6.4939858 1.7569097,6.0134439 1.7569097,5.4662967 c 0,-0.6042388 0.185554,-1.1133217 0.5519042,-1.5177348 C 2.679922,3.5441488 3.146186,3.3395613 3.7076058,3.3395613 c 0.3235301,0 0.6232712,0.076148 0.8992233,0.2236245 C 4.7115006,2.9732126 4.982695,2.483157 5.4251699,2.097781 5.8676449,1.7076432 6.3862445,1.5173311 6.9762111,1.5173311 c 0.6042401,0 1.1323554,0.1998257 1.5795881,0.5994772 0.4472328,0.3996611 0.7184271,0.9039823 0.813583,1.5177445 0.28071,-0.1379821 0.5804511,-0.2093491 0.8992238,-0.2093491 0.56142,0 1.037199,0.1998257 1.417823,0.5947252 0.385381,0.3948995 0.575693,0.8801933 0.575693,1.4558815 0,0.5090926 -0.157007,0.9610837 -0.466264,1.3512215 0.147492,0.2569174 0.242648,0.4234405 0.275952,0.4995692 0.09516,0.1760367 0.19507,0.3806241 0.299742,0.6089908 0.314014,0.2141011 0.471021,0.5090828 0.471021,0.8754417 z M 4.1929009,10.776002 c 0.2521632,0 0.3758658,-0.05706 0.3758658,-0.166523 0,-0.137972 -0.08564,-0.242642 -0.2569209,-0.309257 C 4.3879708,9.9529008 4.4403063,9.6293766 4.4783687,9.3248704 4.1405651,9.1488328 3.9692845,8.8728778 3.9692845,8.5065281 3.9692845,8.2115463 4.073956,7.978418 4.283299,7.8071332 4.492642,7.6358582 4.6639226,7.5502158 4.7876253,7.5502158 L 4.3546659,6.8175182 c -0.014273,-0.014314 -0.00951,-0.033303 0.00951,-0.057062 C 4.5497337,6.6367588 4.6924675,6.4559604 4.8018967,6.2180703 4.9113261,5.9801802 4.9636618,5.7327765 4.9636618,5.4663357 4.9636618,5.0619225 4.8494747,4.7193628 4.6163428,4.4386564 4.3832127,4.162663 4.0787138,4.0246906 3.702848,4.0246906 c -0.3758659,0 -0.6851225,0.1379724 -0.9182545,0.4139268 -0.2378898,0.2759545 -0.3568346,0.6185142 -0.3568346,1.0276793 0,0.2664408 0.052336,0.5186063 0.1617649,0.7517346 C 2.6989532,6.4559214 2.841687,6.6367198 3.027241,6.7604168 3.055788,6.7747308 3.065303,6.7937198 3.05103,6.8174788 2.9416008,6.9792407 2.7655623,7.2742224 2.5324303,7.6929109 L 2.1422912,8.4113331 c -0.1998275,0.052291 -0.2997411,0.1760367 -0.2997411,0.3758723 0,0.1046704 0.038062,0.1903128 0.114187,0.266432 0.076125,0.07615 0.1712807,0.1094324 0.2807099,0.1094324 0.1046716,0 0.1950697,-0.03807 0.2711943,-0.1094324 0.076125,-0.07615 0.1141872,-0.1617616 0.1141872,-0.266432 0,-0.08092 -0.023789,-0.1570096 -0.066609,-0.2236246 l 0.3996548,-0.7089085 0.023789,-0.02376 c 0.014273,0 0.019031,0.014314 0.00951,0.042846 -0.052336,0.1569997 -0.076125,0.3235227 -0.076125,0.4995594 0,0.3758725 0.066609,1.0181779 0.1998274,1.9174003 -0.066609,0.02376 -0.1237026,0.06661 -0.1760384,0.128459 -0.052336,0.06183 -0.076125,0.123707 -0.076125,0.180798 0,0.109432 0.1284605,0.166524 0.3901392,0.166524 0.2236163,0 0.3330457,-0.05706 0.3330457,-0.166524 0,-0.09514 -0.028547,-0.176036 -0.090398,-0.233128 l 0.00951,-1.0752688 c 0.090398,0.01431 0.1570073,0.02376 0.209343,0.02376 0.066609,0 0.137976,-0.0097 0.209343,-0.02376 l 0.00951,1.0752688 c -0.057094,0.05706 -0.090398,0.137972 -0.090398,0.233128 0.00951,0.118945 0.1237027,0.176037 0.3520768,0.176037 z M 8.6271662,8.8824008 c 0.1046714,0.09991 0.2283741,0.1474866 0.3758658,0.1474866 0.1474917,0 0.2759521,-0.04762 0.3806236,-0.1474866 0.1046715,-0.09992 0.161765,-0.2188628 0.161765,-0.3615974 0,-0.2521654 -0.137976,-0.4186884 -0.4091703,-0.4995691 C 8.9221495,7.5549678 8.7413532,7.1791053 8.5938615,6.8888755 8.4178232,6.5510775 8.1704178,6.1704533 7.8516455,5.7470129 7.8373721,5.7184816 7.8421318,5.6946245 7.8611591,5.6804075 8.1180801,5.5091325 8.3274231,5.2807561 8.4796726,4.9857743 8.6366798,4.6955446 8.7128045,4.3767738 8.7128045,4.038966 8.7128045,3.5156175 8.5462817,3.077892 8.2084782,2.7258186 7.8706747,2.3737451 7.4615044,2.1977084 6.9714514,2.1977084 c -0.4805373,0 -0.8897077,0.1760367 -1.2275112,0.5281102 -0.3282878,0.3568351 -0.4948107,0.7945509 -0.4948107,1.3179091 0,0.3473214 0.076125,0.6660922 0.2283742,0.9515603 0.1522495,0.2902298 0.3568346,0.5185965 0.6137555,0.6851195 0.023789,0.014314 0.023789,0.038074 0.00951,0.066605 -0.32353,0.4282021 -0.5661776,0.8088263 -0.7327005,1.1418626 L 4.8161682,8.0212343 c -0.2664365,0.076148 -0.3996548,0.2426518 -0.3996548,0.4995691 0,0.1379726 0.052336,0.26168 0.1570072,0.3615974 0.1046716,0.09991 0.2283742,0.1474866 0.3758659,0.1474866 0.1474916,0 0.2711943,-0.04762 0.3758658,-0.1474866 0.1046714,-0.09992 0.1570073,-0.2188628 0.1570073,-0.3615974 0,-0.1094313 -0.028547,-0.2093393 -0.090398,-0.29022 C 5.7915165,7.4788488 5.9961017,7.088711 6.0103751,7.064922 c 0.023789,-0.028531 0.038062,-0.042845 0.04282,-0.042845 0.014273,0.00974 0.014273,0.02376 0,0.057062 -0.095156,0.2949915 -0.1427339,0.6185142 -0.1427339,0.9658357 0,0.118945 0.023789,0.3901378 0.071367,0.8135889 0.047578,0.4234416 0.099914,0.8230952 0.1474916,1.1894444 l 0.076125,0.556671 c -0.095156,0.03807 -0.1760384,0.09991 -0.2378898,0.180788 -0.061851,0.08569 -0.095156,0.166523 -0.095156,0.23789 0,0.147496 0.1712807,0.223615 0.5090841,0.223615 0.3044989,0 0.4567484,-0.07615 0.4567484,-0.223615 0,-0.123697 -0.04282,-0.228366 -0.1332183,-0.309257 V 9.2724922 c 0.090398,0.02376 0.1760385,0.0333 0.2664365,0.0333 0.090398,0 0.1760385,-0.0097 0.2664366,-0.0333 V 10.7141 c -0.090398,0.08092 -0.1332182,0.18556 -0.1332182,0.309257 0,0.147496 0.1570071,0.223615 0.4662639,0.223615 0.3378035,0 0.5090841,-0.07615 0.5090841,-0.223615 0,-0.07138 -0.033305,-0.152247 -0.099914,-0.23789 -0.066609,-0.08559 -0.1474915,-0.147486 -0.2426475,-0.180788 0.2045852,-1.4416192 0.3092567,-2.2932636 0.3092567,-2.5597044 0,-0.3044954 -0.047578,-0.6232662 -0.1427338,-0.9658357 -0.014273,-0.028531 -0.014273,-0.047617 0,-0.057062 0.014273,0 0.023789,0.014314 0.033305,0.042845 l 0.6327868,1.1656614 c -0.066609,0.076148 -0.099914,0.171275 -0.099914,0.29022 0.00476,0.1427347 0.057094,0.2616801 0.1570073,0.3615975 z M 6.6003453,3.6583418 c 0,0.08092 -0.033305,0.1522477 -0.095156,0.2141011 -0.061851,0.061834 -0.1379761,0.099908 -0.2283742,0.1046697 -0.080883,0 -0.1522495,-0.033303 -0.2188586,-0.095137 -0.061851,-0.061834 -0.095156,-0.137982 -0.095156,-0.2283764 0,-0.08092 0.028547,-0.1522477 0.090398,-0.2141011 0.061851,-0.061834 0.1332182,-0.099918 0.2236164,-0.1046696 0.090398,0 0.1665228,0.033303 0.2283742,0.095137 0.061851,0.061834 0.095156,0.1379724 0.095156,0.2283763 z m 0.7564895,1.060982 c 0.090398,-0.071377 0.1712806,-0.066605 0.2426476,0.02376 0.090398,0.1046697 0.08564,0.1950738 -0.00951,0.2759545 -0.1617651,0.1570094 -0.3663502,0.2331283 -0.6089978,0.2331283 -0.2283742,0 -0.4329594,-0.076148 -0.6089978,-0.2331283 -0.090398,-0.076148 -0.090398,-0.1665231 -0.00951,-0.2759545 0.080883,-0.08092 0.1665228,-0.090365 0.2569209,-0.02376 0.014273,0.014314 0.023789,0.02376 0.033305,0.02376 0.095156,0.090365 0.2045852,0.1332204 0.3330456,0.1332204 0.1237028,0 0.2378898,-0.042846 0.3425614,-0.1332204 0.00951,-0.014314 0.019031,-0.02376 0.028547,-0.02376 z m 0.6423023,-1.084771 c 0,0.090365 -0.033305,0.1665231 -0.095156,0.2283667 -0.061851,0.061834 -0.1379761,0.095137 -0.2283742,0.095137 -0.080883,0 -0.1522495,-0.028531 -0.2141008,-0.090365 -0.061851,-0.057062 -0.095156,-0.1332204 -0.095156,-0.2236148 -0.00951,-0.090365 0.019031,-0.166523 0.080883,-0.2283764 0.061851,-0.061834 0.1379761,-0.095137 0.2283742,-0.095137 0.080883,0 0.1522495,0.033303 0.2188586,0.095137 0.061851,0.066605 0.095156,0.1379724 0.1046714,0.2188628 z m 3.7586579,5.552345 c 0.10943,0 0.204586,-0.03807 0.285469,-0.1094324 0.08088,-0.07138 0.114187,-0.1617616 0.114187,-0.2664318 0,-0.1903128 -0.09991,-0.3140192 -0.299742,-0.3663589 C 11.710218,8.1116383 11.586516,7.8451976 11.481844,7.6453718 11.320079,7.3503901 11.14404,7.041133 10.948971,6.7271142 c -0.0095,-0.02376 0,-0.042846 0.02379,-0.066605 0.413928,-0.2711927 0.618513,-0.6708539 0.618513,-1.1846984 0,-0.3901378 -0.123702,-0.7184222 -0.375866,-0.9753396 -0.252162,-0.2569271 -0.566177,-0.3901475 -0.942043,-0.3901475 -0.3711087,0 -0.6803655,0.1332204 -0.9372864,0.3948994 C 9.0839154,4.7669022 8.955455,5.0904347 8.955455,5.4758108 c 0,0.5233582 0.209343,0.9182577 0.6232712,1.1846984 0.023789,0.02376 0.023789,0.042846 0.00951,0.066605 L 9.1314905,7.5359405 c 0.1332183,0 0.3092567,0.085691 0.5328731,0.2569173 0.2236163,0.1712848 0.3330457,0.4044132 0.3330457,0.7089183 0,0.3711017 -0.1760385,0.6470567 -0.5328732,0.8326183 l 0.1760385,0.9658276 c -0.066609,0.02853 -0.1237026,0.07615 -0.1712807,0.133221 -0.047578,0.05706 -0.071367,0.118945 -0.071367,0.176036 0,0.109432 0.1237027,0.166523 0.3758659,0.166523 0.2236165,0 0.3330462,-0.05706 0.3330462,-0.166523 0,-0.104669 -0.02855,-0.180798 -0.09039,-0.233128 V 9.4009996 c 0.06661,0.02376 0.142733,0.0333 0.233131,0.0333 0.09516,0 0.176039,-0.0097 0.242648,-0.0333 v 0.9753514 c -0.05709,0.05229 -0.09039,0.128459 -0.09039,0.233128 0,0.109432 0.109429,0.166523 0.333046,0.166523 0.252163,0 0.375865,-0.05706 0.375865,-0.166523 0,-0.05706 -0.02379,-0.118945 -0.07137,-0.176036 -0.04758,-0.05706 -0.10467,-0.10467 -0.171281,-0.133221 0.147493,-0.7374608 0.223617,-1.3131508 0.223617,-1.7318405 0,-0.08092 -0.0095,-0.1807984 -0.02379,-0.2949818 -0.01428,-0.1141833 -0.02855,-0.2093394 -0.03806,-0.2902298 -0.0095,-0.076148 -0.01428,-0.118945 -0.01428,-0.1284587 v -0.033303 c 0.01428,0 0.02379,0.00974 0.0333,0.02376 l 0.39014,0.7422113 c -0.05234,0.08092 -0.07613,0.1570097 -0.07613,0.2236251 0,0.1046702 0.04282,0.1903126 0.123703,0.2664318 0.07137,0.07615 0.166523,0.1094324 0.271194,0.1094324 z"
         id="path132"
         style="fill:#2ecc71;fill-opacity:1;stroke:#f3f3f3;stroke-width:0.204477;stroke-linecap:round;stroke-linejoin:round;stroke-dasharray:none;stroke-dashoffset:0;stroke-opacity:0;paint-order:stroke fill markers" /></g></g></svg>
